<svg width="46" height="46" viewBox="0 0 46 46" fill="none" xmlns="http://www.w3.org/2000/svg">
<g clip-path="url(#clip0_23_1192)">
<circle cx="23" cy="23" r="23" fill="white"/>
<path d="M19 21.6667L23 25.6667L36.3333 12.3333M28.3333 11H17.4C15.1598 11 14.0397 11 13.184 11.436C12.4314 11.8195 11.8195 12.4314 11.436 13.184C11 14.0397 11 15.1598 11 17.4V28.6C11 30.8402 11 31.9603 11.436 32.816C11.8195 33.5686 12.4314 34.1805 13.184 34.564C14.0397 35 15.1598 35 17.4 35H28.6C30.8402 35 31.9603 35 32.816 34.564C33.5686 34.1805 34.1805 33.5686 34.564 32.816C35 31.9603 35 30.8402 35 28.6V23" stroke="#002992" stroke-width="2" stroke-linecap="round" stroke-linejoin="round"/>
</g>
<defs>
<clipPath id="clip0_23_1192">
<rect width="46" height="46" fill="white"/>
</clipPath>
</defs>
</svg>
